<?xml version="1.0" encoding="UTF-8"?>
<svg width="63px" height="63px" viewBox="0 0 63 63" version="1.1" xmlns="http://www.w3.org/2000/svg" xmlns:xlink="http://www.w3.org/1999/xlink">
    <!-- Generator: Sketch 54.1 (76490) - https://sketchapp.com -->
    <title>noun_neighbors_1422692</title>
    <desc>Created with Sketch.</desc>
    <g id="Page-1" stroke="none" stroke-width="1" fill="none" fill-rule="evenodd">
        <g id="noun_neighbors_1422692" transform="translate(-1.000000, 0.000000)" fill="#54C470" fill-rule="nonzero">
            <path d="M52.535,38.788 L52.535,24.213 C58.819,23.822 63.816,18.6 63.816,12.218 C63.816,5.583 58.419,0.186 51.785,0.186 C45.403,0.186 40.181,5.183 39.79,11.468 L25.21,11.468 C24.82,5.183 19.598,0.186 13.217,0.186 C6.582,0.186 1.184,5.583 1.184,12.218 C1.184,18.6 6.182,23.823 12.467,24.213 L12.467,38.788 C6.181,39.179 1.184,44.401 1.184,50.783 C1.184,57.417 6.582,62.814 13.217,62.814 C19.599,62.814 24.821,57.817 25.211,51.533 L39.788,51.533 C40.179,57.817 45.401,62.814 51.783,62.814 C58.418,62.814 63.816,57.417 63.816,50.783 C63.816,44.402 58.819,39.18 52.535,38.788 Z M39.788,50.033 L25.211,50.033 C25.019,46.942 23.664,44.166 21.569,42.14 L23.857,39.851 C26.046,42.117 29.109,43.533 32.501,43.533 C35.559,43.533 38.344,42.377 40.469,40.491 L42.595,42.618 C42.664,42.687 42.744,42.737 42.828,42.773 C41.078,44.729 39.961,47.252 39.788,50.033 Z M20.315,21.912 L22.806,24.403 C21.343,26.396 20.468,28.844 20.468,31.5 C20.468,34.203 21.375,36.692 22.885,38.704 L20.42,41.169 C18.598,39.8 16.38,38.939 13.967,38.789 L13.967,24.213 C16.333,24.066 18.512,23.236 20.315,21.912 Z M25.21,12.968 L39.79,12.968 C39.965,15.776 41.102,18.32 42.88,20.282 L40.566,22.597 C38.429,20.659 35.606,19.468 32.502,19.468 C29.063,19.468 25.965,20.926 23.77,23.246 L21.473,20.949 C23.621,18.915 25.015,16.104 25.21,12.968 Z M32.501,42.033 C26.693,42.033 21.968,37.307 21.968,31.499 C21.968,25.691 26.693,20.967 32.501,20.967 C38.308,20.967 43.032,25.692 43.032,31.499 C43.032,37.308 38.308,42.033 32.501,42.033 Z M43.813,41.794 C43.776,41.708 43.725,41.627 43.656,41.558 L41.528,39.429 C43.392,37.309 44.533,34.538 44.533,31.5 C44.533,28.509 43.429,25.775 41.616,23.668 L43.951,21.332 C45.881,22.993 48.339,24.046 51.036,24.213 L51.036,38.788 C48.271,38.959 45.762,40.063 43.813,41.794 Z M51.785,22.751 C48.639,22.751 45.818,21.357 43.887,19.163 C43.977,16.337 46.528,14.062 49.658,14.062 C50.072,14.062 50.408,13.726 50.408,13.312 C50.408,12.898 50.072,12.562 49.658,12.562 C49.574,12.562 49.492,12.571 49.408,12.574 C48.794,11.949 48.432,11.115 48.432,10.233 C48.432,8.384 49.936,6.88 51.785,6.88 C53.633,6.88 55.137,8.384 55.137,10.233 C55.137,11.116 54.776,11.949 54.161,12.574 C54.078,12.572 53.996,12.562 53.912,12.562 C53.498,12.562 53.162,12.898 53.162,13.312 C53.162,13.726 53.498,14.062 53.912,14.062 C57.041,14.062 59.592,16.336 59.683,19.162 C57.751,21.357 54.931,22.751 51.785,22.751 Z M51.785,1.686 C57.592,1.686 62.316,6.411 62.316,12.218 C62.316,14.128 61.797,15.915 60.905,17.461 C60.211,15.213 58.293,13.445 55.864,12.816 C56.349,12.047 56.636,11.161 56.636,10.233 C56.636,7.557 54.459,5.38 51.784,5.38 C49.108,5.38 46.931,7.557 46.931,10.233 C46.931,11.161 47.217,12.047 47.703,12.816 C45.273,13.445 43.355,15.213 42.662,17.462 C41.768,15.916 41.25,14.128 41.25,12.218 C41.252,6.41 45.978,1.686 51.785,1.686 Z M13.217,1.686 C19.024,1.686 23.748,6.411 23.748,12.218 C23.748,14.128 23.229,15.915 22.337,17.462 C21.643,15.214 19.725,13.446 17.295,12.817 C17.781,12.048 18.068,11.162 18.068,10.234 C18.068,7.558 15.892,5.381 13.216,5.381 C10.54,5.381 8.363,7.558 8.363,10.234 C8.363,11.162 8.65,12.048 9.136,12.817 C6.706,13.446 4.788,15.214 4.094,17.463 C3.201,15.917 2.682,14.129 2.682,12.219 C2.684,6.41 7.409,1.686 13.217,1.686 Z M5.318,19.163 C5.408,16.337 7.959,14.062 11.089,14.062 C11.503,14.062 11.839,13.726 11.839,13.312 C11.839,12.898 11.503,12.562 11.089,12.562 C11.005,12.562 10.923,12.571 10.839,12.574 C10.225,11.949 9.863,11.115 9.863,10.233 C9.863,8.384 11.367,6.88 13.216,6.88 C15.064,6.88 16.568,8.384 16.568,10.233 C16.568,11.116 16.207,11.949 15.592,12.574 C15.509,12.572 15.427,12.562 15.343,12.562 C14.929,12.562 14.593,12.898 14.593,13.312 C14.593,13.726 14.929,14.062 15.343,14.062 C18.472,14.062 21.023,16.336 21.114,19.162 C19.183,21.356 16.363,22.75 13.217,22.75 C10.07,22.751 7.25,21.357 5.318,19.163 Z M13.217,61.314 C10.071,61.314 7.25,59.92 5.319,57.726 C5.409,54.901 7.96,52.626 11.09,52.626 C11.504,52.626 11.84,52.29 11.84,51.876 C11.84,51.462 11.504,51.126 11.09,51.126 C11.006,51.126 10.923,51.135 10.839,51.138 C10.226,50.513 9.864,49.68 9.864,48.798 C9.864,46.948 11.368,45.444 13.217,45.444 C15.066,45.444 16.57,46.948 16.57,48.798 C16.57,49.68 16.208,50.513 15.593,51.138 C15.51,51.135 15.428,51.126 15.344,51.126 C14.93,51.126 14.594,51.462 14.594,51.876 C14.594,52.29 14.93,52.626 15.344,52.626 C18.474,52.626 21.025,54.899 21.115,57.726 C19.184,59.921 16.363,61.314 13.217,61.314 Z M22.338,56.025 C21.644,53.777 19.726,52.009 17.296,51.38 C17.782,50.611 18.069,49.725 18.069,48.798 C18.069,46.122 15.892,43.944 13.216,43.944 C10.54,43.944 8.363,46.122 8.363,48.798 C8.363,49.726 8.65,50.611 9.135,51.38 C6.705,52.01 4.787,53.777 4.093,56.026 C3.2,54.48 2.681,52.693 2.681,50.783 C2.681,44.975 7.406,40.25 13.214,40.25 C19.022,40.25 23.746,44.976 23.746,50.783 C23.749,52.692 23.23,54.479 22.338,56.025 Z M51.783,61.314 C48.637,61.314 45.815,59.919 43.884,57.725 C43.975,54.9 46.527,52.626 49.656,52.626 C50.07,52.626 50.406,52.29 50.406,51.876 C50.406,51.462 50.07,51.126 49.656,51.126 C49.571,51.126 49.489,51.135 49.405,51.138 C48.791,50.513 48.429,49.68 48.429,48.798 C48.429,46.948 49.933,45.444 51.783,45.444 C53.633,45.444 55.137,46.948 55.137,48.798 C55.137,49.68 54.776,50.513 54.159,51.138 C54.076,51.135 53.994,51.126 53.91,51.126 C53.496,51.126 53.16,51.462 53.16,51.876 C53.16,52.29 53.496,52.626 53.91,52.626 C57.04,52.626 59.592,54.899 59.682,57.725 C57.751,59.92 54.93,61.314 51.783,61.314 Z M60.905,56.025 C60.211,53.777 58.293,52.009 55.862,51.38 C56.349,50.611 56.636,49.726 56.636,48.798 C56.636,46.122 54.458,43.944 51.782,43.944 C49.106,43.944 46.928,46.122 46.928,48.798 C46.928,49.726 47.215,50.611 47.701,51.38 C45.271,52.01 43.353,53.777 42.659,56.025 C41.766,54.479 41.248,52.692 41.248,50.783 C41.248,44.975 45.974,40.25 51.781,40.25 C57.588,40.25 62.314,44.976 62.314,50.783 C62.316,52.692 61.798,54.479 60.905,56.025 Z" id="Shape"></path>
            <path d="M32.489,23.826 C29.352,23.826 26.8,26.107 26.8,28.911 C26.8,30.624 27.653,32.828 29.333,35.462 C30.544,37.361 31.789,38.836 31.799,38.847 C31.975,39.055 32.236,39.174 32.512,39.174 L32.53,39.174 L32.543,39.174 C32.823,39.164 33.081,39.034 33.274,38.787 C33.574,38.383 34.637,36.932 35.69,35.2 C37.378,32.425 38.2,30.367 38.2,28.911 C38.2,26.107 35.648,23.826 32.489,23.826 Z M34.409,34.421 C33.684,35.612 32.955,36.666 32.49,37.317 C32.041,36.746 31.316,35.784 30.597,34.656 C29.094,32.3 28.3,30.313 28.3,28.911 C28.3,26.934 30.179,25.326 32.511,25.326 C34.821,25.326 36.7,26.934 36.7,28.911 C36.7,29.707 36.303,31.309 34.409,34.421 Z" id="Shape"></path>
            <path d="M32.5,26.956 C31.041,26.956 29.854,28.144 29.854,29.603 C29.854,31.063 31.041,32.25 32.5,32.25 C33.959,32.25 35.147,31.062 35.147,29.603 C35.146,28.144 33.959,26.956 32.5,26.956 Z M32.5,30.75 C31.868,30.75 31.354,30.235 31.354,29.603 C31.354,28.971 31.868,28.456 32.5,28.456 C33.132,28.456 33.647,28.971 33.647,29.603 C33.646,30.236 33.132,30.75 32.5,30.75 Z" id="Shape"></path>
        </g>
    </g>
</svg>