<?xml version="1.0" encoding="UTF-8"?>
<svg width="77px" height="86px" viewBox="0 0 77 86" version="1.1" xmlns="http://www.w3.org/2000/svg" xmlns:xlink="http://www.w3.org/1999/xlink">
    <!-- Generator: Sketch 54.1 (76490) - https://sketchapp.com -->
    <title>noun_Community_1886132</title>
    <desc>Created with Sketch.</desc>
    <g id="Page-1" stroke="none" stroke-width="1" fill="none" fill-rule="evenodd">
        <g id="noun_Community_1886132" transform="translate(-13.000000, 1.000000)" fill="#54C470" fill-rule="nonzero" stroke="#54C470">
            <path d="M60.42,21 L42.24,21 C38.8147999,20.9943918 36.027485,23.7549056 36,27.18 L36,45.73 C35.9924655,48.5167228 37.8393677,50.9683629 40.52,51.73 L40.52,82.09 C40.52,82.540868 40.6991066,82.9732697 41.0179185,83.2920815 C41.3367303,83.6108934 41.769132,83.79 42.22,83.79 L60.42,83.79 C61.3588841,83.79 62.12,83.0288841 62.12,82.09 L62.12,51.7 C64.7986947,50.9376065 66.6422001,48.4850494 66.63,45.7 L66.63,27.18 C66.608038,23.7643164 63.8357499,21.005421 60.42,21 Z M63.23,45.77 C63.23,47.3219201 61.9719201,48.58 60.42,48.58 C59.4811159,48.58 58.72,49.3411159 58.72,50.28 L58.72,80.39 L43.94,80.39 L43.94,50.24 C43.94,49.3011159 43.1788841,48.54 42.24,48.54 C41.4947417,48.54 40.7800072,48.2439473 40.2530299,47.7169701 C39.7260527,47.1899928 39.43,46.4752583 39.43,45.73 L39.43,27.18 C39.4273417,26.4330105 39.7222204,25.7157043 40.249486,25.1865623 C40.7767517,24.6574203 41.4930058,24.3599953 42.24,24.36 L60.42,24.36 C61.1669942,24.3599953 61.8832483,24.6574203 62.410514,25.1865623 C62.9377796,25.7157043 63.2326583,26.4330105 63.23,27.18 L63.23,45.77 Z" id="Shape"></path>
            <path d="M51.71,17.6 C56.5067355,17.5889603 60.3873453,13.6934399 60.3799898,8.89669735 C60.3726342,4.0999548 56.4800955,0.216354128 51.6833487,0.22002556 C46.8866019,0.223696993 43.0000127,4.11325181 43,8.91 C43.0026506,11.2173839 43.9217982,13.4292103 45.5552404,15.0589017 C47.1886826,16.6885932 49.4026161,17.6026537 51.71,17.6 Z M51.71,3.6 C54.6315863,3.6 57,5.96841367 57,8.89 C57,11.8115863 54.6315863,14.18 51.71,14.18 C48.7884137,14.18 46.42,11.8115863 46.42,8.89 C46.4310162,5.9762272 48.7962064,3.61997918 51.71,3.62 L51.71,3.6 Z" id="Shape"></path>
            <path d="M82.48,26 L69.68,26.1 C68.7411159,26.1 67.98,26.8611159 67.98,27.8 C67.98,28.7388841 68.7411159,29.5 69.68,29.5 L69.68,29.5 L82.46,29.4 C83.2069942,29.3999953 83.9232483,29.6974203 84.450514,30.2265623 C84.9777796,30.7557043 85.2726583,31.4730105 85.27,32.22 L85.27,45.73 C85.27,47.2819201 84.0119201,48.54 82.46,48.54 C81.5211159,48.54 80.76,49.3011159 80.76,50.24 L80.76,74.39 L65.09,74.39 C64.1511159,74.39 63.39,75.1511159 63.39,76.09 C63.39,77.0288841 64.1511159,77.79 65.09,77.79 L82.49,77.79 C83.4288841,77.79 84.19,77.0288841 84.19,76.09 L84.19,51.7 C86.8686947,50.9376065 88.7122001,48.4850494 88.7,45.7 L88.7,32.18 C88.6780087,28.7604201 85.8996506,25.9999293 82.48,26 Z" id="Path"></path>
            <path d="M73.78,22.6 C78.5793545,22.6 82.47,18.7093545 82.47,13.91 C82.47,9.11064552 78.5793545,5.22 73.78,5.22 C68.9806455,5.22 65.09,9.11064552 65.09,13.91 C65.0955107,18.70707 68.98293,22.5944893 73.78,22.6 Z M73.78,8.6 C76.7015863,8.6 79.07,10.9684137 79.07,13.89 C79.07,16.8115863 76.7015863,19.18 73.78,19.18 C70.8584137,19.18 68.49,16.8115863 68.49,13.89 C68.5010162,10.9762272 70.8662064,8.61997918 73.78,8.62 L73.78,8.6 Z" id="Shape"></path>
            <path d="M37.25,74.39 L21.65,74.39 L21.65,50.24 C21.65,49.3011159 20.8888841,48.54 19.95,48.54 C18.3964539,48.5400098 17.135509,47.2835363 17.13,45.73 L17.13,32.18 C17.1298811,31.4233453 17.4338411,30.6983846 17.9735575,30.1680709 C18.5132739,29.6377572 19.2434642,29.3465841 20,29.36 L32.8,29.36 C33.7388841,29.36 34.5,28.5988841 34.5,27.66 C34.5,26.7211159 33.7388841,25.96 32.8,25.96 L20,25.96 C16.5670721,25.9655059 13.7855059,28.7470721 13.78,32.18 L13.78,45.73 C13.7690598,48.5178558 15.617339,50.9713238 18.3,51.73 L18.3,76.09 C18.3,77.0288841 19.0611159,77.79 20,77.79 L37.3,77.79 C38.2388841,77.79 39,77.0288841 39,76.09 C39,75.1511159 38.2388841,74.39 37.3,74.39 L37.25,74.39 Z" id="Path"></path>
            <path d="M28.66,22.6 C32.1774815,22.6121433 35.3553664,20.5026092 36.7098709,17.2563589 C38.0643753,14.0101086 37.3283191,10.2674748 34.8453737,7.77592797 C32.3624283,5.28438115 28.6223623,4.53538654 25.3714472,5.87865667 C22.1205322,7.22192681 20.000021,10.3924976 20,13.91 C20.0054499,18.6953976 23.8746499,22.5780013 28.66,22.6 Z M28.66,8.6 C31.5815863,8.6 33.95,10.9684137 33.95,13.89 C33.95,16.8115863 31.5815863,19.18 28.66,19.18 C25.7384137,19.18 23.37,16.8115863 23.37,13.89 C23.3864753,10.9785096 25.7484681,8.62544685 28.66,8.62 L28.66,8.6 Z" id="Shape"></path>
        </g>
    </g>
</svg>