<svg width="80" height="72" xmlns="http://www.w3.org/2000/svg"><g fill="#54C470"><path d="M52.3 22.8c-1.1 0-2-.9-2-2V8.6c0-1.1.9-2 2-2s2 .9 2 2v12.3c0 1-.9 1.9-2 1.9zm6 0c-1.1 0-2-.9-2-2V8.6c0-1.1.9-2 2-2s2 .9 2 2v12.3c0 1-.9 1.9-2 1.9z"/><path d="M77.9 19.7H67.7v-10H78c1.1 0 2-.9 2-2s-.9-2-2-2H67.7V2.1c0-1.1-.9-2-2-2h-9.9C48.3.1 42 5.9 41.3 13.2c-8.9 1.1-15.8 7.6-15.8 15.5 0 8.6 8.3 15.7 18.6 15.7 8 0 14.6 5.2 14.6 11.7 0 6.4-6.5 11.7-14.6 11.7-.1 0-9.6.2-14-5.1.5-3.1 1.9-14-4.5-22.7-4.8-6.4-12.4-10.1-22.8-11-1.1-.1-2 .6-2.2 1.7C-1 41 .8 49.2 5.9 55.3c6.8 8 17.3 9.5 20.7 9.8 5.1 6.5 14.9 6.8 17 6.8h.4c10.2 0 18.6-7 18.6-15.7 0-8.6-8.3-15.7-18.6-15.7-8 0-14.6-5.2-14.6-11.7 0-5.7 5.2-10.5 12-11.5 1.2 6.8 7.2 12 14.3 12h9.9c1.1 0 2-.9 2-2v-3.6h10.3c1.1 0 2-.9 2-2s-.9-2-2-2zM17 37.4c1.4.9 2.6 1.9 3.7 3.1l-.9 9.1-3.5-4.5.7-7.7zm-3.8-1.9l-.5 5.1-5.4-6.9c2.1.4 4.1 1 5.9 1.8zm-9.1.6l5.5 7.1-5.1-.5c-.4-2.1-.5-4.3-.4-6.6zm1.5 10.7l7.5.7 3.7 4.7-8.8-.9c-1-1.3-1.8-2.9-2.4-4.5zm6.7 9l7.8.8 3.1 3.9c-3.1-.7-7.3-2-10.9-4.7zm11.9-10c2 4.3 2.3 8.9 2.2 12.2l-3-3.8.8-8.4zm39.5-20.5h-7.9c-5.8 0-10.6-4.7-10.6-10.6 0-5.8 4.7-10.6 10.6-10.6h7.9v21.2z"/></g></svg>