<svg width="81" height="75" xmlns="http://www.w3.org/2000/svg"><g fill="#54C470"><path d="M78.638.64H12.5a1.5 1.5 0 1 0 0 3h64.638v32.634a1.5 1.5 0 0 0 3 0V2.14a1.5 1.5 0 0 0-1.5-1.5z"/><path d="M73.638 5.64H7.5a1.5 1.5 0 1 0 0 3h64.638v32.634a1.5 1.5 0 0 0 3 0V7.14a1.5 1.5 0 0 0-1.5-1.5z"/><path d="M68.638 10.39H2.5a1.75 1.75 0 0 0-1.75 1.75v34.134c0 .967.784 1.75 1.75 1.75h7.633v-3.5H4.25v-7.711a9.629 9.629 0 0 1 5.883 3.615V36c0-.127.011-.248.02-.37a13.037 13.037 0 0 0-5.903-2.353v-8.14c5.839-.783 10.465-5.409 11.249-11.248h40.126c.742 5.887 5.391 10.562 11.264 11.35v8.14a13.004 13.004 0 0 0-5.064 1.798 13.133 13.133 0 0 0-6.168 9.348H38v3.5h18.691c.179.062.368.103.568.103.2 0 .39-.041.568-.103h10.811a1.75 1.75 0 0 0 1.75-1.75V12.14a1.75 1.75 0 0 0-1.75-1.75zM4.25 21.601V13.89h7.711a9.645 9.645 0 0 1-7.711 7.711zm54.911-7.711h7.728v7.813a9.644 9.644 0 0 1-7.728-7.813zm6.576 23.306c.374-.118.76-.209 1.151-.281v7.609h-7.696a9.662 9.662 0 0 1 6.545-7.328z"/><path d="M38 36.472V40.2c4.301-1.244 7.497-5.693 7.497-10.992 0-.896-.101-1.763-.272-2.599-1.032-5.009-4.964-8.752-9.655-8.752-1.695 0-3.291.49-4.688 1.35-3.116 1.917-5.24 5.68-5.24 10.001 0 .054.006.106.007.161 1.006.043 2.23.137 3.513.325-.008-.162-.02-.322-.02-.485 0-4.137 2.635-7.528 5.962-7.822.154-.014.309-.029.466-.029 1.973 0 3.74 1.094 4.919 2.809.939 1.365 1.508 3.124 1.508 5.042 0 3.277-1.655 6.089-3.997 7.263z"/><path d="M44.932 53.084c-2.329 0-4.814.226-6.933.743-.621.151-1.207.329-1.75.533V36c0-.131-.026-.253-.043-.378-.302-2.246-3.235-3.527-6.784-4.121a31.224 31.224 0 0 0-3.628-.373 37.29 37.29 0 0 0-1.728-.044c-5.417 0-11.691 1.203-12.14 4.538-.017.125-.043.247-.043.378v30c0 3.629 6.563 4.917 12.183 4.917 3.012 0 6.285-.375 8.683-1.276V70c0 .504.138.958.371 1.375 1.445 2.582 6.972 3.542 11.812 3.542 5.62 0 12.184-1.288 12.184-4.917V58c0-.132-.026-.253-.044-.379-.448-3.335-6.723-4.537-12.14-4.537zm8.684 16.667c-.686.616-3.757 1.666-8.684 1.666-4.926 0-7.997-1.05-8.683-1.666v-2.11c.407.152.834.294 1.288.417 2.212.603 4.895.859 7.395.859 3.012 0 6.285-.375 8.684-1.277v2.111zM24.067 34.584c1.026 0 1.965.048 2.826.126 2.703.244 4.562.802 5.433 1.264.016.009.04.018.055.026l-.012.006c-.532.29-1.47.62-2.757.89-.36.075-.745.146-1.16.208a29.139 29.139 0 0 1-4.385.313c-2.26 0-4.117-.223-5.545-.521-1.295-.271-2.238-.604-2.769-.896 1.115-.612 4.005-1.416 8.314-1.416zM53.616 63.75c-.68.614-3.749 1.667-8.684 1.667-3.08 0-5.433-.41-6.933-.869-.902-.275-1.495-.567-1.75-.799v-2.108c.543.204 1.129.382 1.75.533 2.118.518 4.604.743 6.933.743 3.012 0 6.285-.375 8.684-1.277v2.11zM32.75 46.274v1.476a2.158 2.158 0 0 1-.417.274c-.316.169-.76.35-1.333.524-1.5.458-3.853.868-6.933.868-3.08 0-5.433-.41-6.933-.869a7.718 7.718 0 0 1-1.332-.523 2.136 2.136 0 0 1-.418-.275V45.64c.072.026.144.054.218.08.481.171.994.321 1.532.453.141.034.281.068.425.101 2.022.446 4.334.643 6.508.643 2.174 0 4.486-.196 6.508-.643.144-.032.284-.066.425-.101a15.197 15.197 0 0 0 1.75-.533v.634zm-15.616-6.1c2.119.518 4.604.743 6.933.743 2.329 0 4.814-.226 6.933-.743a17.72 17.72 0 0 0 1.155-.321c.205-.066.4-.14.595-.212v2.109c-.255.23-.847.522-1.75.799-1.5.458-3.853.868-6.933.868-3.08 0-5.433-.41-6.933-.869-.902-.275-1.495-.567-1.75-.799v-2.108c.543.204 1.129.381 1.75.533zm0 12c2.119.518 4.604.743 6.933.743 2.329 0 4.814-.226 6.933-.743a15.197 15.197 0 0 0 1.75-.533v2.109c-.255.23-.847.522-1.75.799-1.5.458-3.853.868-6.933.868-3.08 0-5.433-.41-6.933-.869-.902-.275-1.495-.567-1.75-.799v-2.108c.543.204 1.129.381 1.75.533zm-1.75 5.467c.543.204 1.129.382 1.75.533 2.119.518 4.604.743 6.933.743 2.329 0 4.814-.226 6.933-.743a15.197 15.197 0 0 0 1.75-.533v2.109c-.255.23-.847.522-1.75.799-1.5.458-3.853.868-6.933.868-3.08 0-5.433-.41-6.933-.869-.902-.275-1.495-.567-1.75-.799v-2.108zm29.548 1.776c-3.089 0-5.433-.414-6.933-.874-.592-.182-1.065-.369-1.381-.543.316-.174.789-.361 1.381-.542 1.5-.46 3.844-.874 6.933-.874 4.309 0 7.198.804 8.314 1.416-1.115.613-4.004 1.417-8.314 1.417zm-29.548 4.224c.543.204 1.129.382 1.75.533 2.119.518 4.604.743 6.933.743 2.329 0 4.814-.226 6.933-.743a15.197 15.197 0 0 0 1.75-.533v2.11c-.686.616-3.757 1.666-8.683 1.666s-7.997-1.05-8.683-1.666v-2.11z"/></g></svg>
