<?xml version="1.0" standalone="no"?>
<!DOCTYPE svg PUBLIC "-//W3C//DTD SVG 20010904//EN"
 "http://www.w3.org/TR/2001/REC-SVG-20010904/DTD/svg10.dtd">
<svg version="1.0" xmlns="http://www.w3.org/2000/svg"
 width="700.000000pt" height="700.000000pt" viewBox="0 0 700.000000 700.000000"
 preserveAspectRatio="xMidYMid meet">
<metadata>
Created by potrace 1.11, written by Peter Selinger 2001-2013
</metadata>
<g transform="translate(0.000000,700.000000) scale(0.100000,-0.100000)"
fill="#000000" stroke="none">
<path d="M3357 6944 c-1 -1 -49 -5 -107 -9 -58 -3 -116 -8 -130 -10 -14 -2
-47 -6 -75 -9 -63 -8 -104 -14 -130 -19 -11 -3 -40 -8 -65 -12 -25 -4 -70 -13
-100 -20 -30 -8 -67 -16 -81 -19 -103 -18 -395 -118 -569 -194 -334 -147 -699
-386 -935 -613 -33 -31 -74 -70 -90 -85 -28 -27 -104 -108 -198 -212 -165
-183 -400 -552 -514 -807 -81 -183 -166 -422 -199 -563 -9 -37 -17 -74 -19
-82 -16 -65 -37 -171 -41 -200 -2 -19 -6 -46 -9 -60 -20 -99 -38 -332 -39
-510 0 -98 11 -334 19 -390 2 -14 6 -45 9 -70 84 -633 357 -1253 768 -1745 90
-109 285 -307 388 -397 244 -212 560 -412 855 -543 122 -54 369 -144 436 -159
13 -3 76 -19 139 -35 97 -25 201 -46 330 -66 32 -5 114 -14 215 -24 88 -9 508
-6 595 3 72 8 201 26 226 30 10 2 60 11 109 21 165 31 497 125 580 165 11 5
49 21 84 35 527 216 1027 598 1386 1060 75 96 193 267 229 330 9 17 33 57 52
90 166 287 332 740 389 1063 3 18 12 58 20 89 8 31 14 58 12 59 -2 2 -179 5
-395 6 l-391 3 -6 -40 c-14 -86 -78 -313 -122 -428 -132 -349 -334 -665 -592
-927 -320 -324 -665 -539 -1089 -676 -89 -29 -297 -81 -357 -89 -11 -1 -40 -5
-65 -9 -168 -25 -250 -30 -251 -15 0 8 -1 232 -1 499 0 267 -4 487 -8 490 -5
3 -450 5 -989 5 l-982 -1 6 111 c3 60 7 164 10 230 4 102 13 315 19 445 l1 35
970 0 970 0 1 820 1 820 -996 5 -995 5 -2 95 c-1 52 -5 235 -8 405 l-7 311
983 -1 c541 0 993 1 1004 3 l21 4 1 506 c0 279 1 512 1 519 1 6 11 10 24 8 12
-2 60 -6 107 -10 46 -4 87 -8 90 -10 3 -1 25 -6 50 -9 320 -44 700 -184 989
-366 89 -55 235 -158 266 -187 11 -10 42 -36 69 -57 80 -64 248 -238 332 -343
267 -332 462 -740 540 -1128 10 -49 21 -93 24 -98 6 -7 769 -11 776 -4 2 1 -2
23 -7 47 -6 25 -13 56 -15 70 -2 14 -9 45 -14 70 -5 25 -12 56 -14 70 -9 54
-67 270 -95 355 -80 242 -230 564 -351 755 -249 391 -571 732 -938 990 -260
183 -583 346 -887 449 -183 61 -474 128 -635 146 -36 4 -76 9 -88 11 -101 12
-486 26 -495 18z"/>
</g>
</svg>
