
<svg width="24px" height="24px" viewBox="0 0 24 24" version="1.1" xmlns="http://www.w3.org/2000/svg" xmlns:xlink="http://www.w3.org/1999/xlink">
    <g id="Page-1" stroke="none" stroke-width="1" fill="none" fill-rule="evenodd">
        <g id="facebook-3" fill="#FFFFFF" fill-rule="nonzero">
            <path d="M19,0 L5,0 C2.239,0 0,2.239 0,5 L0,19 C0,21.761 2.239,24 5,24 L19,24 C21.762,24 24,21.761 24,19 L24,5 C24,2.239 21.762,0 19,0 Z M16,7 L14.076,7 C13.461,7 13,7.252 13,7.889 L13,9 L16,9 L15.762,12 L13,12 L13,20 L10,20 L10,12 L8,12 L8,9 L10,9 L10,7.077 C10,5.055 11.064,4 13.461,4 L16,4 L16,7 Z" id="Shape"></path>
        </g>
    </g>
</svg>
