<?xml version="1.0" encoding="UTF-8"?>
<svg width="34px" height="34px" viewBox="0 0 34 34" version="1.1" xmlns="http://www.w3.org/2000/svg" xmlns:xlink="http://www.w3.org/1999/xlink">
    <!-- Generator: Sketch 54.1 (76490) - https://sketchapp.com -->
    <title>facebook</title>
    <desc>Created with Sketch.</desc>
    <g id="Page-1" stroke="none" stroke-width="1" fill="none" fill-rule="evenodd">
        <g id="Desktop-HD" transform="translate(-228.000000, -3764.000000)" fill="#FFFFFF" fill-rule="nonzero">
            <g id="Footer" transform="translate(0.000000, 3495.000000)">
                <g id="SocMed" transform="translate(228.000000, 269.000000)">
                    <g id="facebook">
                        <path d="M27.625,0 L6.375,0 C2.85338462,0 0,2.85338462 0,6.375 L0,27.625 C0,31.1466154 2.85338462,34 6.375,34 L27.625,34 C31.1466154,34 34,31.1466154 34,27.625 L34,6.375 C34,2.85338462 31.1466154,0 27.625,0 Z M26.7606154,18.3103077 L23.579,18.3103077 L23.579,30.0847692 L18.2658462,30.0847692 L18.2658462,18.3103077 L16.2049231,18.3103077 L16.2049231,14.3440769 L18.2658462,14.3440769 L18.2658462,11.8176154 C18.2671538,8.50523077 19.6428462,6.53846154 23.5463077,6.53846154 L27.5020769,6.53846154 L27.5020769,10.4903077 L25.2044615,10.4903077 C23.6849231,10.4903077 23.5855385,11.0565385 23.5855385,12.1157692 L23.579,14.3427692 L27.1934615,14.3427692 L26.7606154,18.3103077 Z" id="Shape"></path>
                    </g>
                </g>
            </g>
        </g>
    </g>
</svg>