
<svg width="24px" height="24px" viewBox="0 0 24 24" version="1.1" xmlns="http://www.w3.org/2000/svg" xmlns:xlink="http://www.w3.org/1999/xlink">
    <g id="Page-1" stroke="none" stroke-width="1" fill="none" fill-rule="evenodd">
        <g id="instagram-13" fill="#FFFFFF" fill-rule="nonzero">
            <path d="M15.233,5.488 C14.39,5.45 14.136,5.442 12,5.442 C9.864,5.442 9.611,5.45 8.768,5.488 C6.598,5.587 5.587,6.615 5.489,8.767 C5.45,9.611 5.441,9.864 5.441,12 C5.441,14.136 5.45,14.389 5.488,15.233 C5.587,17.381 6.594,18.413 8.767,18.512 C9.61,18.55 9.864,18.559 12,18.559 C14.137,18.559 14.39,18.551 15.233,18.513 C17.403,18.414 18.413,17.384 18.512,15.234 C18.55,14.39 18.558,14.137 18.558,12.001 C18.558,9.865 18.55,9.612 18.512,8.769 C18.413,6.616 17.401,5.587 15.233,5.488 Z M12,16.108 C9.731,16.108 7.892,14.269 7.892,12 C7.892,9.731 9.732,7.892 12,7.892 C14.268,7.892 16.108,9.731 16.108,12 C16.108,14.269 14.269,16.108 12,16.108 Z M16.271,8.69 C15.741,8.69 15.311,8.26 15.311,7.73 C15.311,7.2 15.741,6.77 16.271,6.77 C16.801,6.77 17.231,7.2 17.231,7.73 C17.231,8.26 16.801,8.69 16.271,8.69 Z M14.667,12 C14.667,13.473 13.473,14.667 12,14.667 C10.527,14.667 9.333,13.473 9.333,12 C9.333,10.527 10.527,9.333 12,9.333 C13.473,9.333 14.667,10.527 14.667,12 Z M19,0 L5,0 C2.239,0 0,2.239 0,5 L0,19 C0,21.761 2.239,24 5,24 L19,24 C21.762,24 24,21.761 24,19 L24,5 C24,2.239 21.762,0 19,0 Z M19.952,15.298 C19.82,18.207 18.201,19.819 15.299,19.952 C14.445,19.991 14.173,20 12,20 C9.827,20 9.556,19.991 8.702,19.952 C5.794,19.819 4.182,18.204 4.048,15.298 C4.009,14.445 4,14.173 4,12 C4,9.828 4.009,9.555 4.048,8.702 C4.182,5.794 5.796,4.181 8.702,4.049 C9.556,4.009 9.827,4 12,4 C14.173,4 14.445,4.009 15.299,4.048 C18.207,4.181 19.822,5.799 19.952,8.701 C19.991,9.555 20,9.828 20,12 C20,14.173 19.991,14.445 19.952,15.298 Z" id="Shape"></path>
        </g>
    </g>
</svg>
