<?xml version="1.0" encoding="UTF-8"?>
<svg width="34px" height="34px" viewBox="0 0 34 34" version="1.1" xmlns="http://www.w3.org/2000/svg" xmlns:xlink="http://www.w3.org/1999/xlink">
    <!-- Generator: Sketch 54.1 (76490) - https://sketchapp.com -->
    <title>linkedin</title>
    <desc>Created with Sketch.</desc>
    <g id="Page-1" stroke="none" stroke-width="1" fill="none" fill-rule="evenodd">
        <g id="Desktop-HD" transform="translate(-350.000000, -3764.000000)" fill="#FFFFFF" fill-rule="nonzero">
            <g id="Footer" transform="translate(0.000000, 3495.000000)">
                <g id="SocMed" transform="translate(228.000000, 269.000000)">
                    <g id="linkedin" transform="translate(122.000000, 0.000000)">
                        <path d="M27.625,0 L6.375,0 C2.85338462,0 0,2.85338462 0,6.375 L0,27.625 C0,31.1466154 2.85338462,34 6.375,34 L27.625,34 C31.1466154,34 34,31.1466154 34,27.625 L34,6.375 C34,2.85338462 31.1466154,0 27.625,0 Z M10.5125385,28.8594615 L5.23076923,28.8594615 L5.20069231,13.0468462 L10.4824615,13.0468462 L10.5125385,28.8594615 Z M7.73892308,10.9767692 L7.70623077,10.9767692 C5.98269231,10.9767692 4.86723077,9.78938462 4.86723077,8.30646154 C4.86723077,6.79084615 6.01669231,5.63746154 7.77292308,5.63746154 C9.53046154,5.63746154 10.6119231,6.79084615 10.6446154,8.30646154 C10.6446154,9.78807692 9.52915385,10.9767692 7.73892308,10.9767692 Z M28.8241538,28.8607692 L23.4953077,28.8607692 L23.4953077,20.2679231 C23.4953077,18.1913077 22.9447692,16.7750769 21.0865385,16.7750769 C19.669,16.7750769 18.9013846,17.731 18.53,18.6542308 C18.394,18.9850769 18.36,19.4440769 18.36,19.9056923 L18.36,28.8620769 L13.005,28.8620769 L12.9749231,13.0468462 L18.3299231,13.0468462 L18.36,15.2764615 C19.0413077,14.2224615 20.1829231,12.7225385 22.9107692,12.7225385 C26.2898462,12.7225385 28.8228462,14.9299231 28.8228462,19.6755385 L28.8228462,28.8607692 L28.8241538,28.8607692 Z" id="Shape"></path>
                    </g>
                </g>
            </g>
        </g>
    </g>
</svg>