<?xml version="1.0"?>
<svg xmlns="http://www.w3.org/2000/svg" version="1" viewBox="0 0 24 24" enable-background="new 0 0 24 24">
    <path fill="#ffffff" d="M20,2H4C2.9,2,2,2.9,2,4v16c0,1.1,0.9,2,2,2h16c1.1,0,2-0.9,2-2V4C22,2.9,21.1,2,20,2z M8.1,18H5V9.4h3.1V18z M6.5,8.4 L6.5,8.4C5.6,8.4,5,7.8,5,7c0-0.8,0.6-1.4,1.6-1.4c0.9,0,1.5,0.6,1.5,1.4C8.1,7.8,7.5,8.4,6.5,8.4z M19,18h-3.1v-4.7 c0-1.3-0.8-1.6-1.1-1.6s-1.3,0.2-1.3,1.6c0,0.2,0,4.7,0,4.7h-3.1V9.4h3.1v1.2c0.4-0.7,1.2-1.2,2.7-1.2c1.5,0,2.7,1.2,2.7,3.9V18z"/>
</svg>
