
<svg width="24px" height="24px" viewBox="0 0 24 24" version="1.1" xmlns="http://www.w3.org/2000/svg" xmlns:xlink="http://www.w3.org/1999/xlink">
    <g id="Page-1" stroke="none" stroke-width="1" fill="none" fill-rule="evenodd">
        <g id="twitter-3" fill="#FFFFFF" fill-rule="nonzero">
            <path d="M19,0 L5,0 C2.239,0 0,2.239 0,5 L0,19 C0,21.761 2.239,24 5,24 L19,24 C21.762,24 24,21.761 24,19 L24,5 C24,2.239 21.762,0 19,0 Z M18.861,9.237 C19.07,13.854 15.627,19.002 9.531,19.002 C7.677,19.002 5.952,18.459 4.499,17.527 C6.241,17.732 7.979,17.249 9.359,16.168 C7.922,16.141 6.71,15.192 6.293,13.888 C6.808,13.986 7.314,13.957 7.775,13.832 C6.196,13.515 5.107,12.093 5.142,10.572 C5.584,10.818 6.091,10.966 6.628,10.983 C5.167,10.006 4.753,8.076 5.612,6.6 C7.231,8.586 9.65,9.893 12.378,10.03 C11.899,7.977 13.458,6 15.577,6 C16.52,6 17.374,6.398 17.972,7.037 C18.72,6.89 19.423,6.617 20.058,6.241 C19.812,7.008 19.292,7.651 18.615,8.057 C19.279,7.977 19.912,7.801 20.5,7.54 C20.061,8.196 19.504,8.774 18.861,9.237 Z" id="Shape"></path>
        </g>
    </g>
</svg>
