<?xml version="1.0" encoding="UTF-8"?>
<svg width="64px" height="64px" viewBox="0 0 64 64" version="1.1" xmlns="http://www.w3.org/2000/svg" xmlns:xlink="http://www.w3.org/1999/xlink">
    <!-- Generator: Sketch 54.1 (76490) - https://sketchapp.com -->
    <title>logo3</title>
    <desc>Created with Sketch.</desc>
    <g id="Page-1" stroke="none" stroke-width="1" fill="none" fill-rule="evenodd">
        <g id="Desktop-HD" transform="translate(-273.000000, -3545.000000)">
            <g id="Footer" transform="translate(0.000000, 3495.000000)">
                <g id="logo3" transform="translate(276.000000, 54.000000)">
                    <polygon id="E" stroke="#7ad354" stroke-width="4" fill="#7ad354" fill-rule="nonzero" points="28.1593662 53.7240316 21.5248315 54.3291992 7.87098594 47.2606812 0.365844 31.6814846 0.367602384 26.8531098 6.70825236 9.06770673 15.6811354 3.08715203 28.1593662 2.04016836 28.1593662 11.0403071 9.75570611 11.0403071 10.0097313 22.4988931 28.1593662 22.4988931 28.1593662 33.5327342 10.4775345 33.5327342 10.0097313 45.0522436 28.1593662 45.0522436"></polygon>
                    <path d="M56.3301174,32.8193359 C53.9996564,45.8639745 42.5976066,55.7657471 28.8828739,55.7657471 C13.4835881,55.7657471 1.00000041,43.2821594 1.00000041,27.8828735 C1.00000041,12.4835877 13.4835881,0 28.8828739,0 C42.6372965,0 54.0656311,9.95916619 56.3501212,23.0597419 C56.3559969,23.0934367 56.3618122,23.1271524 56.3675668,23.1608887" id="Path" stroke="#7ad354" stroke-width="7"></path>
                    <polygon id="Triangle" fill="#7ad354" fill-rule="nonzero" points="59.1155504 19.7229202 60.0977744 23.8010849 52.9026477 23.8010849"></polygon>
                    <polygon id="Triangle-Copy" fill="#7ad354" fill-rule="nonzero" transform="translate(56.488023, 34.239491) scale(-1, 1) rotate(-180.000000) translate(-56.488023, -34.239491) " points="59.1033625 32.2004085 60.0855865 36.2785733 52.8904598 36.2785733"></polygon>
                </g>
            </g>
        </g>
    </g>
</svg>
