<?xml version="1.0" encoding="UTF-8"?>
<svg width="267px" height="43px" viewBox="0 0 267 43" version="1.1" xmlns="http://www.w3.org/2000/svg" xmlns:xlink="http://www.w3.org/1999/xlink">
    <!-- Generator: Sketch 54.1 (76490) - https://sketchapp.com -->
    <title>logo3</title>
    <desc>Created with Sketch.</desc>
    <g id="Page-1" stroke="none" stroke-width="1" fill="none" fill-rule="evenodd">
        <g id="Desktop-HD" transform="translate(-119.000000, -15.000000)">
            <g id="Header+Hero" transform="translate(0.000000, 0.000000)">
                <g id="Header">
                    <g id="logo3" transform="translate(121.349992, 17.442032)">
                        <polygon id="E" stroke="#54C470" stroke-width="2.26800007" fill="#54C470" fill-rule="nonzero" points="15.8393691 30.2192442 12.107508 30.5596451 4.42735289 26.5836726 0.205783685 17.8205263 0.206772759 15.1046126 3.77332658 5.10049667 8.82048585 1.73649293 15.8393691 1.14757482 15.8393691 6.21006515 5.48748962 6.21006515 5.63037633 12.6554081 15.8393691 12.6554081 15.8393691 18.8618362 5.89351105 18.8618362 5.63037633 25.341448 15.8393691 25.341448"></polygon>
                        <path d="M31.6851421,18.4605566 C30.3742805,25.7980387 23.9607386,31.3676893 16.2463351,31.3676893 C7.58438691,31.3676893 0.562490486,24.3457929 0.562490486,15.6838446 C0.562490486,7.02189643 7.58438691,0 16.2463351,0 C23.9830638,0 30.4113906,5.60193393 31.696394,12.9708801 C31.6996991,12.9898331 31.7029701,13.0087978 31.706207,13.0277742" id="Path" stroke="#54C470" stroke-width="3.96900013"></path>
                        <polygon id="Triangle" fill="#54C470" fill-rule="nonzero" points="33.251921 11.0939504 33.8044124 13.3878783 29.7572238 13.3878783"></polygon>
                        <polygon id="Triangle-Copy" fill="#54C470" fill-rule="nonzero" transform="translate(31.773963, 19.259380) scale(-1, 1) rotate(-180.000000) translate(-31.773963, -19.259380) " points="33.2450654 18.112416 33.7975569 20.4063439 29.7503682 20.4063439"></polygon>
                        <path d="M65.280369,31.4994543 L44.7033507,31.4994543 L44.7033507,0.260995478 L65.280369,0.260995478 L65.280369,5.70140122 L50.8018701,5.70140122 L50.8018701,13.0283993 L63.1305313,13.0283993 L63.1305313,18.468805 L50.8018701,18.468805 L50.8018701,26.0590485 L65.280369,26.0590485 L65.280369,31.4994543 Z M86.9699932,31.4994543 L81.3979648,31.4994543 L81.3979648,29.5251135 C79.8623664,31.0607119 78.4145165,31.7188255 75.7820621,31.7188255 C73.1934819,31.7188255 71.3068896,31.0607119 69.9467882,29.7006104 C68.7183094,28.4282575 68.0601958,26.5855394 68.0601958,24.5673244 C68.0601958,20.9257625 70.5610275,17.9423141 75.8698105,17.9423141 L81.266342,17.9423141 L81.266342,16.8015839 C81.266342,14.3007522 80.0378633,13.2038962 77.0105408,13.2038962 C74.8168288,13.2038962 73.8077213,13.7303871 72.6231168,15.0904886 L68.9815549,11.5366751 C71.2191411,9.07971769 73.4128531,8.37772985 77.229912,8.37772985 C83.635551,8.37772985 86.9699932,11.0979327 86.9699932,16.45059 L86.9699932,31.4994543 Z M81.266342,23.0756002 L81.266342,21.8471215 L76.7472953,21.8471215 C74.6852061,21.8471215 73.5444758,22.8123548 73.5444758,24.4357016 C73.5444758,26.0151743 74.5974576,27.068156 76.8350438,27.068156 C78.4145165,27.068156 79.423624,26.9365333 80.4327315,25.9713 C81.0469708,25.4009349 81.266342,24.4795759 81.266342,23.0756002 Z M109.186108,24.3040789 C109.186108,29.3496165 104.886433,31.7626997 99.4899013,31.7626997 C95.8922136,31.7626997 92.6455199,31.3678315 89.7498201,28.4721317 L93.4791305,24.7428213 C95.3657228,26.6294136 97.8226802,26.8926591 99.5776498,26.8926591 C101.551991,26.8926591 103.61408,26.2345455 103.61408,24.5234501 C103.61408,23.3827199 102.999841,22.5929836 101.200997,22.4174866 L97.603309,22.0664927 C93.4791305,21.6716245 90.9344245,19.8727807 90.9344245,15.6608537 C90.9344245,10.9224358 95.1024773,8.37772985 99.7531468,8.37772985 C103.30696,8.37772985 106.290408,8.99196921 108.48412,11.0540585 L104.974181,14.6078719 C103.657954,13.4232674 101.639739,13.0722735 99.6653983,13.0722735 C97.3839378,13.0722735 96.4187045,14.1252553 96.4187045,15.2659855 C96.4187045,16.0995961 96.7696984,17.0648293 98.7879135,17.2403263 L102.385601,17.5913202 C106.904648,18.0300626 109.186108,20.4431458 109.186108,24.3040789 Z M131.138978,8.64097529 L121.355023,35.1848904 C120.872406,36.4572434 120.345915,37.4224766 119.643927,38.1244645 C118.3277,39.4406917 116.616605,39.8794341 114.730012,39.8794341 L112.492426,39.8794341 L112.492426,34.746148 L113.808653,34.746148 C115.432,34.746148 116.090114,34.3512799 116.660479,32.6840587 L117.625712,29.8761074 L109.816097,8.64097529 L115.826868,8.64097529 L120.565286,22.7684805 L125.128207,8.64097529 L131.138978,8.64097529 Z M156.514038,15.7486022 C156.514038,20.4431458 156.865032,25.0060668 153.355093,28.516006 C151.293004,30.5780952 148.35343,31.4994543 145.106736,31.4994543 L133.831056,31.4994543 L133.831056,0.260995478 L145.106736,0.260995478 C148.35343,0.260995478 151.293004,1.18235452 153.355093,3.24444379 C156.865032,6.75438298 156.514038,11.0540585 156.514038,15.7486022 Z M150.415519,15.7486022 C150.415519,11.0101842 150.240022,9.03584345 149.099292,7.63186778 C148.04631,6.35951482 146.642334,5.70140122 144.536371,5.70140122 L139.929576,5.70140122 L139.929576,26.0590485 L144.536371,26.0590485 C146.642334,26.0590485 148.04631,25.4009349 149.099292,24.128582 C150.240022,22.7246063 150.415519,20.4870201 150.415519,15.7486022 Z M177.896543,10.5275676 L173.596867,14.8711174 C172.719383,13.9936326 171.973521,13.5110159 170.569545,13.5110159 C168.814575,13.5110159 166.884109,14.8272431 166.884109,17.7229429 L166.884109,31.4994543 L161.180458,31.4994543 L161.180458,8.64097529 L166.752486,8.64097529 L166.752486,10.8346873 C167.849342,9.51846009 170.043054,8.37772985 172.500011,8.37772985 C174.737598,8.37772985 176.31707,8.94809497 177.896543,10.5275676 Z M185.721907,31.4994543 L180.018256,31.4994543 L180.018256,8.64097529 L185.721907,8.64097529 L185.721907,31.4994543 Z M185.765782,4.73616794 L179.930508,4.73616794 L179.930508,0.0854985187 L185.765782,0.0854985187 L185.765782,4.73616794 Z M209.210375,8.64097529 L200.830396,31.4994543 L196.355223,31.4994543 L187.931369,8.64097529 L193.94214,8.64097529 L198.592809,22.7684805 L203.199605,8.64097529 L209.210375,8.64097529 Z M217.167363,31.4994543 L211.463711,31.4994543 L211.463711,8.64097529 L217.167363,8.64097529 L217.167363,31.4994543 Z M217.211237,4.73616794 L211.375963,4.73616794 L211.375963,0.0854985187 L217.211237,0.0854985187 L217.211237,4.73616794 Z M241.401693,31.4994543 L235.698041,31.4994543 L235.698041,17.6790687 C235.698041,14.5639977 233.723701,13.5110159 231.924857,13.5110159 C230.126013,13.5110159 228.107798,14.5639977 228.107798,17.6790687 L228.107798,31.4994543 L222.404147,31.4994543 L222.404147,8.64097529 L227.976175,8.64097529 L227.976175,10.7469388 C229.467899,9.16746617 231.573863,8.37772985 233.679826,8.37772985 C235.961287,8.37772985 237.804005,9.12359193 239.076358,10.3959449 C240.919076,12.238663 241.401693,14.3885007 241.401693,16.8893324 L241.401693,31.4994543 Z M264.36367,30.6658437 C264.36367,36.1501237 260.458862,40.1426795 254.316469,40.1426795 C250.80653,40.1426795 248.393447,39.4406917 246.024238,37.1592312 L249.578051,33.5615435 C250.850404,34.7900223 252.122757,35.3165131 254.053223,35.3165131 C257.475414,35.3165131 258.660019,32.9034299 258.660019,30.5780952 L258.660019,28.2527605 C257.168295,29.9199816 255.457199,30.534221 253.219613,30.534221 C250.982027,30.534221 249.05156,29.7883589 247.779207,28.516006 C245.629369,26.3661682 245.453872,23.4265941 245.453872,19.4340383 C245.453872,15.4414825 245.629369,12.5457826 247.779207,10.3959449 C249.05156,9.12359193 251.025901,8.37772985 253.263487,8.37772985 C255.67657,8.37772985 257.256043,9.03584345 258.835516,10.790813 L258.835516,8.64097529 L264.36367,8.64097529 L264.36367,30.6658437 Z M258.660019,19.4340383 C258.660019,16.4067158 258.265151,13.5110159 254.886834,13.5110159 C251.508518,13.5110159 251.157524,16.4067158 251.157524,19.4340383 C251.157524,22.4613609 251.508518,25.4009349 254.886834,25.4009349 C258.265151,25.4009349 258.660019,22.4613609 258.660019,19.4340383 Z" id="EasyDriving" fill="#54C470" fill-rule="nonzero"></path>
                    </g>
                </g>
            </g>
        </g>
    </g>
</svg>