<?xml version="1.0" encoding="UTF-8"?>
<svg width="1689px" height="260px" viewBox="0 0 1689 260" version="1.1" xmlns="http://www.w3.org/2000/svg" xmlns:xlink="http://www.w3.org/1999/xlink">
    <!-- Generator: Sketch 57.1 (83088) - https://sketch.com -->
    <title>K&amp;E_IDW_logo_liggend</title>
    <desc>Created with Sketch.</desc>
    <g id="Page-1" stroke="none" stroke-width="1" fill="none" fill-rule="evenodd">
        <g id="K&amp;E_IDW_logo_liggend" fill="#444444">
            <path d="M837.728,180.093 L845.143,180.093 C853.983,180.093 856.264,175.53 856.264,165.263 L856.264,51.195 C856.264,40.929 853.413,36.936 846.284,36.936 L837.728,36.936 L837.728,180.093 Z M799.8,3.287 L853.698,3.287 C882.215,3.287 895.048,16.404 895.048,48.629 L895.048,168.4 C895.048,198.914 884.497,215.454 853.698,215.454 L799.8,215.454 L799.8,3.287 L799.8,3.287 Z" id="Fill-1"></path>
            <path d="M971.19,51.765 C971.19,42.355 967.76,37.793 961.205,37.793 C953.505,37.793 950.938,42.355 950.938,51.765 L950.938,168.115 C950.938,174.675 953.505,180.663 961.49,180.663 C969.19,180.663 971.19,174.675 971.19,168.115 L971.19,51.765 Z M1010.82,166.974 C1010.82,198.058 994.28,218.591 965.77,218.591 L957.212,218.591 C927.269,218.591 911.299,200.34 911.299,166.974 L911.299,54.902 C911.299,22.108 924.132,0.719 956.927,0.719 L965.48,0.719 C998.85,0.719 1010.82,22.108 1010.82,54.617 L1010.82,166.974 L1010.82,166.974 Z" id="Fill-2"></path>
            <polyline id="Fill-3" points="1106.92 3.287 1106.92 40.644 1065.57 40.644 1065.57 86.842 1098.08 86.842 1098.08 125.054 1065.57 125.054 1065.57 177.241 1108.92 177.241 1108.92 215.454 1027.65 215.454 1027.65 3.287 1106.92 3.287"></polyline>
            <polyline id="Fill-4" points="1211.58 3.287 1211.58 40.644 1184.49 40.644 1184.49 215.454 1146.56 215.454 1146.56 40.644 1119.47 40.644 1119.47 3.287 1211.58 3.287"></polyline>
            <path d="M1341.04,3.347 L1315.18,125.297 L1324.84,3.347 L1269.41,3.347 L1266,214.84 L1330.52,214.84 L1350.71,110.512 L1344.46,214.84 L1405.85,214.84 L1461.85,3.347 L1407.85,3.347 L1384.82,126.431 L1391.93,3.347 L1341.04,3.347 Z M1495.68,214.84 L1549.12,214.84 L1552.53,3.347 L1482.89,3.347 L1422.62,214.84 L1470.38,214.84 L1476.92,188.687 L1497.1,188.687 L1495.68,214.84 Z M1488.57,141.216 L1502.5,85.784 L1499.66,141.216 L1488.57,141.216 Z M1573.56,3.347 L1565.31,54.231 L1590.33,54.231 L1565.03,214.84 L1619.89,214.84 L1645.19,54.231 L1670.49,54.231 L1678.45,3.347 L1573.56,3.347 Z M1688.41,163.671 L1642.36,163.671 L1634.11,214.84 L1680.16,214.84 L1688.41,163.671 L1688.41,163.671 Z" id="Fill-5"></path>
            <polyline id="Fill-6" points="1266.03 233.345 1266.03 259.087 1675.54 259.087 1680.22 233.345 1266.03 233.345"></polyline>
            <polyline id="Fill-7" points="659.435 4.419 659.435 215.893 692.979 215.893 692.979 99.923 722.255 215.893 754.375 215.893 754.375 4.419 720.832 4.419 720.832 112.43 694.966 4.419 659.435 4.419"></polyline>
            <polyline id="Fill-8" points="564.219 4.419 564.219 215.893 645.233 215.893 645.233 177.806 602.024 177.806 602.024 125.788 634.43 125.788 634.43 87.702 602.024 87.702 602.024 41.65 643.24 41.65 643.24 4.419 564.219 4.419"></polyline>
            <polyline id="Fill-9" points="469.002 4.419 469.002 215.893 550.017 215.893 550.017 177.806 506.808 177.806 506.808 125.788 539.214 125.788 539.214 87.702 506.808 87.702 506.808 41.65 548.024 41.65 548.024 4.419 469.002 4.419"></polyline>
            <path d="M414.153,77.75 C414.153,87.702 411.31,90.545 403.632,90.545 L396.247,90.545 L396.247,37.107 L404.769,37.107 C412.448,37.107 414.153,39.95 414.153,49.041 L414.153,77.75 Z M452.24,198.843 L452.24,126.926 C452.24,111.294 442.005,104.189 436.039,101.915 C443.143,98.785 452.808,91.113 452.808,73.488 L452.808,39.663 C452.808,16.922 441.156,4.42 418.133,4.42 L358.442,4.42 L358.442,215.893 L396.247,215.893 L396.247,125.507 L404.201,125.507 C411.879,125.507 414.153,128.062 414.153,138.014 L414.153,199.692 C414.153,209.071 415.572,213.619 417.564,215.893 L455.37,215.893 L455.37,214.474 C453.945,211.913 452.24,207.939 452.24,198.843 L452.24,198.843 Z" id="Fill-10"></path>
            <polyline id="Fill-11" points="263.226 4.419 263.226 215.893 344.234 215.893 344.234 177.806 301.031 177.806 301.031 125.788 333.432 125.788 333.432 87.702 301.031 87.702 301.031 41.65 342.248 41.65 342.248 4.419 263.226 4.419"></polyline>
            <path d="M207.521,165.867 C207.521,176.101 205.247,180.649 196.431,180.649 L189.041,180.649 L189.041,37.958 L197.568,37.958 C204.678,37.958 207.521,41.937 207.521,52.171 L207.521,165.867 Z M204.959,4.42 L151.235,4.42 L151.235,215.893 L204.959,215.893 C235.661,215.893 246.175,199.411 246.175,168.997 L246.175,49.609 C246.175,17.49 233.386,4.42 204.959,4.42 L204.959,4.42 Z" id="Fill-12"></path>
            <polyline id="Fill-13" points="56.025 4.419 56.025 215.893 137.033 215.893 137.033 177.806 93.824 177.806 93.824 125.788 126.231 125.788 126.231 87.702 93.824 87.702 93.824 41.65 135.041 41.65 135.041 4.419 56.025 4.419"></polyline>
            <polygon id="Fill-14" points="0.601 215.899 38.406 215.899 38.406 4.419 0.601 4.419"></polygon>
        </g>
    </g>
</svg>