<?xml version="1.0" encoding="UTF-8"?>
<svg width="437px" height="70px" viewBox="0 0 437 70" version="1.1" xmlns="http://www.w3.org/2000/svg" xmlns:xlink="http://www.w3.org/1999/xlink">
    <!-- Generator: Sketch 57.1 (83088) - https://sketch.com -->
    <title>onzeauto</title>
    <desc>Created with Sketch.</desc>
    <g id="Page-1" stroke="none" stroke-width="1" fill="none" fill-rule="evenodd">
        <g id="onzeauto" fill="#444444" fill-rule="nonzero">
            <g id="Group" transform="translate(78.000000, 2.000000)">
                <path d="M25.3,34.7 C25.3,30.9 23.5,28.4 19.8,28.4 C16.2,28.4 14.3,30.8 14.3,34.6 L14.3,66.8 L0.8,66.8 L0.8,15 L14.3,15 L14.3,18.5 C15.5,17.4 18.4,14.6 24.7,14.6 C36.8,14.6 40.8,22.9 40.8,32.8 L40.8,66.7 L25.3,66.7 L25.3,34.7 L25.3,34.7 Z" id="Path"></path>
                <polygon id="Path" points="65 53.9 84.1 53.9 84.1 66.7 46.5 66.7 46.5 55.7 65 28 46.8 28 46.8 15.2 84.2 15.2 84.2 26.2"></polygon>
                <path d="M102.7,46 C103.4,50.9 107.2,53.9 113.2,53.9 C118.7,53.9 121.9,50.7 123.7,47.8 L135.6,54.7 C132.7,60.7 126,67.5 113.2,67.5 C97.5,67.5 86.7,57.6 86.7,41.1 C86.7,25.7 97,14.2 112,14.2 C127.8,14.2 137.3,24.5 137.3,39.9 C137.3,41.4 137.3,43.3 137.1,45.9 L102.7,45.9 L102.7,46 Z M103.1,35.1 L121.2,35.1 C120.8,30.9 117.5,27.2 112,27.2 C106.6,27.2 103.5,31 103.1,35.1 Z" id="Shape"></path>
                <path d="M182,50.9 L161,50.9 L155.5,66.8 L139.7,66.8 L163,0.1 L180,0.1 L204.7,66.8 L187.6,66.8 L182,50.9 Z M165.6,37.4 L177.4,37.4 L171.5,20.5 L165.6,37.4 Z" id="Shape"></path>
                <path d="M222.3,47.2 C222.3,51 223.8,53.5 227.5,53.5 C231.1,53.5 233,51 233,47.2 L233,15.2 L248.5,15.2 L248.5,66.7 L233.1,66.7 L233.1,63.4 C231.9,64.7 228.7,67.3 222.9,67.3 C211.3,67.3 206.8,59.7 206.8,49 L206.8,15.2 L222.3,15.2 L222.3,47.2 Z" id="Path"></path>
                <path d="M273.8,15.2 L280,15.2 L280,28.2 L273.8,28.2 L273.8,48.7 C273.8,52.2 275.2,53.3 278,53.3 L280.6,53.3 L280.6,66.3 C280.6,66.3 278.2,67.3 272.8,67.3 C263,67.3 258.3,62.2 258.3,53.3 L258.3,28.2 L254,28 L254,15 L258.3,15.2 L258.3,7 L273.8,7 L273.8,15.2 Z" id="Path"></path>
                <path d="M310.9,14.3 C327.8,14.3 338.2,25.9 338.2,40.8 C338.2,55.8 327.4,67.6 311,67.6 C294.4,67.6 283.9,56 283.9,41.1 C284,26.1 295.1,14.3 310.9,14.3 Z M311.1,53.6 C318.4,53.6 322.8,48.1 322.8,41 C322.8,33.8 318.1,28.3 311,28.3 C303.7,28.3 299.3,33.8 299.3,41 C299.4,48.2 304.2,53.6 311.1,53.6 Z" id="Shape"></path>
                <path d="M340.2,58.4 C340.2,53 344.2,49 349.6,49 C355,49 359,53 359,58.4 C359,63.8 355,67.9 349.6,67.9 C344.3,67.9 340.2,63.8 340.2,58.4 Z" id="Path"></path>
            </g>
            <path d="M35.4,0.8 C57.2,0.8 70.8,15.7 70.8,35.2 C70.8,54.7 57.3,70 35.9,70 C14.1,70 0.8,55.1 0.8,35.5 C0.8,16.1 14.9,0.8 35.4,0.8 Z M35.8,55 C47.6,55 53.9,46.3 53.9,35.4 C53.9,24.5 47.2,15.8 35.7,15.8 C23.9,15.8 17.7,24.5 17.7,35.4 C17.7,46.4 24.7,55 35.8,55 Z" id="Shape"></path>
        </g>
    </g>
</svg>