<?xml version="1.0" encoding="UTF-8"?>
<svg width="22px" height="24px" viewBox="0 0 22 24" version="1.1" xmlns="http://www.w3.org/2000/svg" xmlns:xlink="http://www.w3.org/1999/xlink">
    <!-- Generator: Sketch 54.1 (76490) - https://sketchapp.com -->
    <title>2reserve-car</title>
    <desc>Created with Sketch.</desc>
    <g id="Page-1" stroke="none" stroke-width="1" fill="none" fill-rule="evenodd">
        <g id="2reserve-car" fill="#9cba5f" fill-rule="nonzero">
            <path d="M1,23.75 L21,23.75 C21.4119621,23.7446142 21.7446142,23.4119621 21.75,23 L21.75,3 C21.7446142,2.58803794 21.4119621,2.25538581 21,2.25 L16.75,2.25 L16.75,1 C16.75,0.585786438 16.4142136,0.25 16,0.25 C15.5857864,0.25 15.25,0.585786438 15.25,1 L15.25,2.25 L11.75,2.25 L11.75,1 C11.75,0.585786438 11.4142136,0.25 11,0.25 C10.5857864,0.25 10.25,0.585786438 10.25,1 L10.25,2.25 L6.75,2.25 L6.75,1 C6.75,0.585786438 6.41421356,0.25 6,0.25 C5.58578644,0.25 5.25,0.585786438 5.25,1 L5.25,2.25 L1,2.25 C0.588037936,2.25538581 0.255385812,2.58803794 0.25,3 L0.25,23 C0.255385812,23.4119621 0.588037936,23.7446142 1,23.75 Z M1.75,22.25 L1.75,8.75 L20.25,8.75 L20.25,22.25 L1.75,22.25 Z M5.25,3.75 L5.25,5 C5.25,5.41421356 5.58578644,5.75 6,5.75 C6.41421356,5.75 6.75,5.41421356 6.75,5 L6.75,3.75 L10.25,3.75 L10.25,5 C10.25,5.41421356 10.5857864,5.75 11,5.75 C11.4142136,5.75 11.75,5.41421356 11.75,5 L11.75,3.75 L15.25,3.75 L15.25,5 C15.25,5.41421356 15.5857864,5.75 16,5.75 C16.4142136,5.75 16.75,5.41421356 16.75,5 L16.75,3.75 L20.25,3.75 L20.25,7.25 L1.75,7.25 L1.75,3.75 L5.25,3.75 Z M8,10.25 L10,10.25 L10,11.75 L8,11.75 L8,10.25 Z M12,10.25 L14,10.25 L14,11.75 L12,11.75 L12,10.25 Z M16,10.25 L18,10.25 L18,11.75 L16,11.75 L16,10.25 Z M4,13.25 L6,13.25 L6,14.75 L4,14.75 L4,13.25 Z M8,13.25 L10,13.25 L10,14.75 L8,14.75 L8,13.25 Z M12,13.25 L14,13.25 L14,14.75 L12,14.75 L12,13.25 Z M16,13.25 L18,13.25 L18,14.75 L16,14.75 L16,13.25 Z M4,16.25 L6,16.25 L6,17.75 L4,17.75 L4,16.25 Z M8,16.25 L10,16.25 L10,17.75 L8,17.75 L8,16.25 Z M12,16.25 L14,16.25 L14,17.75 L12,17.75 L12,16.25 Z M16,16.25 L18,16.25 L18,17.75 L16,17.75 L16,16.25 Z M4,19.25 L6,19.25 L6,20.75 L4,20.75 L4,19.25 Z M8,19.25 L10,19.25 L10,20.75 L8,20.75 L8,19.25 Z M12,19.25 L14,19.25 L14,20.75 L12,20.75 L12,19.25 Z" id="Shape"></path>
        </g>
    </g>
</svg>
