<?xml version="1.0" encoding="UTF-8"?>
<svg width="249px" height="380px" viewBox="0 0 249 380" version="1.1" xmlns="http://www.w3.org/2000/svg" xmlns:xlink="http://www.w3.org/1999/xlink">
    <!-- Generator: Sketch 54.1 (76490) - https://sketchapp.com -->
    <title>3open-car-with-app</title>
    <desc>Created with Sketch.</desc>
    <g id="Page-1" stroke="none" stroke-width="1" fill="none" fill-rule="evenodd">
        <g id="3open-car-with-app" fill="#7ad354">
            <path d="M125,336 C132,336 139,342 139,349 C139,357 132,363 125,363 C117,363 111,357 111,349 C111,342 117,336 125,336 Z M32,33 L217,33 L217,321 L32,321 L32,33 Z M36,0 L214,0 C233,0 249,16 249,36 L249,344 C249,364 233,380 214,380 L36,380 C16,380 0,364 0,344 L0,36 C0,16 16,0 36,0 Z M125,82 C138,82 150,87 159,95 C167,104 172,116 172,129 C172,142 167,153 159,162 L159,162 C152,168 145,172 136,174 L136,209 L152,209 L152,231 L136,231 L136,252 L153,252 L153,274 L114,274 L114,174 C105,172 98,168 92,162 C84,153 78,142 78,129 C78,116 84,104 92,95 C101,87 112,82 125,82 Z M143,111 C138,107 132,104 125,104 C119,104 112,107 108,111 C104,116 101,122 101,129 C101,136 104,142 108,146 C112,151 119,153 125,153 C132,153 138,151 143,146 C147,142 150,136 150,129 C150,122 147,116 143,111 Z" id="Shape"></path>
        </g>
    </g>
</svg>
