<?xml version="1.0" encoding="UTF-8"?>
<svg width="60px" height="68px" viewBox="0 0 60 68" version="1.1" xmlns="http://www.w3.org/2000/svg" xmlns:xlink="http://www.w3.org/1999/xlink">
    <!-- Generator: Sketch 54.1 (76490) - https://sketchapp.com -->
    <title>Shape</title>
    <desc>Created with Sketch.</desc>
    <g id="Page-1" stroke="none" stroke-width="1" fill="none" fill-rule="evenodd">
        <g id="noun_Car_986641" fill="#7ad354">
            <path d="M6.673631,64 L6.673631,64 L2,64 C0.895431,64 0,63.10457 0,62 L0,50 C0,49.004699 0.73186,48.160858 1.717157,48.020101 L14.945615,46.130321 L23.452085,35.733524 C23.831943,35.269254 24.400134,35 25,35 L45,35 C45.683801,35 46.320207,35.349353 46.687323,35.926249 L53.097892,46 L58,46 C59.104569,46 60,46.895431 60,48 L60,62 C60,63.10457 59.104569,64 58,64 L52.326369,64 C51.202905,66.364947 48.792396,68 46,68 C43.207604,68 40.797095,66.364947 39.673631,64 L19.326369,64 C18.202905,66.364947 15.792396,68 13,68 C10.207604,68 7.797095,66.364947 6.673631,64 Z M13,64 C14.656854,64 16,62.656854 16,61 C16,59.343146 14.656854,58 13,58 C11.343146,58 10,59.343146 10,61 C10,62.656854 11.343146,64 13,64 Z M46,64 C47.656854,64 49,62.656854 49,61 C49,59.343146 47.656854,58 46,58 C44.343146,58 43,59.343146 43,61 C43,62.656854 44.343146,64 46,64 Z M20.220486,46 L48.356654,46 L43.902108,39 L25.947758,39 L20.220486,46 Z M16.142136,50 L4,51.734591 L4,60 L6.070889,60 C6.556119,56.607706 9.473528,54 13,54 C16.526472,54 19.443881,56.607706 19.929111,60 L39.070889,60 C39.556119,56.607706 42.473528,54 46,54 C49.526472,54 52.443881,56.607706 52.929111,60 L56,60 L56,50 L52,50 L16.142136,50 Z M35,28 C27.268014,28 21,21.731986 21,14 C21,6.268014 27.268014,0 35,0 C42.731986,0 49,6.268014 49,14 C49,21.731986 42.731986,28 35,28 Z M35,24 C40.522847,24 45,19.522847 45,14 C45,8.477153 40.522847,4 35,4 C29.477153,4 25,8.477153 25,14 C25,19.522847 29.477153,24 35,24 Z M33.285014,17.971008 L34.467619,16 L32,16 C30.445411,16 29.485185,14.304058 30.285014,12.971008 L33.285014,7.971008 C33.85331,7.023848 35.081831,6.716718 36.028992,7.285014 C36.976152,7.85331 37.283282,9.081831 36.714986,10.028992 L35.532381,12 L38,12 C39.554589,12 40.514815,13.695942 39.714986,15.028992 L36.714986,20.028992 C36.14669,20.976152 34.918169,21.283282 33.971008,20.714986 C33.023848,20.14669 32.716718,18.918169 33.285014,17.971008 Z" id="Shape"></path>
        </g>
    </g>
</svg>
