<?xml version="1.0" encoding="UTF-8"?>
<svg width="68px" height="78px" viewBox="0 0 68 78" version="1.1" xmlns="http://www.w3.org/2000/svg" xmlns:xlink="http://www.w3.org/1999/xlink">
    <!-- Generator: Sketch 54.1 (76490) - https://sketchapp.com -->
    <title>noun_Hamburger_1709320</title>
    <desc>Created with Sketch.</desc>
    <g id="Page-1" stroke="none" stroke-width="1" fill="none" fill-rule="evenodd">
        <g id="noun_Hamburger_1709320" transform="translate(-1.000000, 0.000000)" fill="#54C470" fill-rule="nonzero">
            <g id="Group" transform="translate(1.000000, 0.000000)">
                <path d="M4.2,8.8 L63.8,8.8 C66.1,8.8 68,6.9 68,4.6 C68,2.3 66.1,0.4 63.8,0.4 L4.2,0.4 C1.9,0.4 0,2.3 0,4.6 C0,6.9 1.9,8.8 4.2,8.8 Z" id="Path"></path>
                <path d="M4.2,28.2 L43.8,28.2 C46.1,28.2 48,26.3 48,24 C48,21.7 46.1,19.8 43.8,19.8 L4.2,19.8 C1.9,19.8 0,21.7 0,24 C0,26.3 1.9,28.2 4.2,28.2 Z" id="Path"></path>
                <path d="M63.8,39.2 L4.2,39.2 C1.9,39.2 0,41.1 0,43.4 C0,45.7 1.9,47.6 4.2,47.6 L63.8,47.6 C66.1,47.6 68,45.7 68,43.4 C68,41.1 66.1,39.2 63.8,39.2 Z" id="Path"></path>
            </g>
            <path d="M18.746,77 L15.938,77 L15.938,64.624 L11.674,73.646 L9.594,73.646 L5.226,64.624 L5.226,77 L2.418,77 L2.418,58.488 L5.226,58.488 L10.634,70.006 L15.938,58.488 L18.746,58.488 L18.746,77 Z M34.586,77 L22.756,77 L22.756,58.488 L34.586,58.488 L34.586,61.01 L25.564,61.01 L25.564,66.418 L33.26,66.418 L33.26,68.914 L25.564,68.914 L25.564,74.478 L34.586,74.478 L34.586,77 Z M51.57,77 L48.996,77 L40.442,63.974 L40.442,77 L37.634,77 L37.634,58.488 L40.208,58.488 L48.762,71.488 L48.762,58.488 L51.57,58.488 L51.57,77 Z M68.606,70.76 C68.606,74.582 65.72,77.156 61.95,77.156 C58.18,77.156 55.32,74.582 55.32,70.76 L55.32,58.488 L58.128,58.488 L58.128,70.63 C58.128,73.1 59.636,74.634 61.95,74.634 C64.264,74.634 65.798,73.1 65.798,70.63 L65.798,58.488 L68.606,58.488 L68.606,70.76 Z" id="MENU"></path>
        </g>
    </g>
</svg>