<?xml version="1.0" encoding="UTF-8"?>
<svg width="64px" height="58px" viewBox="0 0 64 58" version="1.1" xmlns="http://www.w3.org/2000/svg" xmlns:xlink="http://www.w3.org/1999/xlink">
    <!-- Generator: Sketch 54.1 (76490) - https://sketchapp.com -->
    <title>Group</title>
    <desc>Created with Sketch.</desc>
    <g id="Page-1" stroke="none" stroke-width="1" fill="none" fill-rule="evenodd">
        <g id="noun_Hamburger_1709320" fill="#54C470" fill-rule="nonzero">
            <g id="Group">
                <path d="M4.2,8.8 L59.8,8.8 C62.1,8.8 64,6.9 64,4.6 C64,2.3 62.1,0.4 59.8,0.4 L4.2,0.4 C1.9,0.4 0,2.3 0,4.6 C0,6.9 1.9,8.8 4.2,8.8 Z" id="Path"></path>
                <path d="M4.2,33.2 L43.8,33.2 C46.1,33.2 48,31.3 48,29 C48,26.7 46.1,24.8 43.8,24.8 L4.2,24.8 C1.9,24.8 0,26.7 0,29 C0,31.3 1.9,33.2 4.2,33.2 Z" id="Path"></path>
                <path d="M59.8,49.2 L4.2,49.2 C1.9,49.2 0,51.1 0,53.4 C0,55.7 1.9,57.6 4.2,57.6 L59.8,57.6 C62.1,57.6 64,55.7 64,53.4 C64,51.1 62.1,49.2 59.8,49.2 Z" id="Path"></path>
            </g>
        </g>
    </g>
</svg>