<?xml version="1.0" encoding="UTF-8"?>
<svg width="68px" height="78px" viewBox="0 0 68 78" version="1.1" xmlns="http://www.w3.org/2000/svg" xmlns:xlink="http://www.w3.org/1999/xlink">
    <!-- Generator: Sketch 54.1 (76490) - https://sketchapp.com -->
    <title>noun_Hamburger_1709320</title>
    <desc>Created with Sketch.</desc>
    <g id="Page-1" stroke="none" stroke-width="1" fill="none" fill-rule="evenodd">
        <g id="noun_Hamburger_1709320" transform="translate(-1.000000, 0.000000)" fill="#54C470">
            <g id="Group" transform="translate(1.000000, 0.000000)" fill-rule="nonzero">
                <path d="M4.2,8.8 L63.8,8.8 C66.1,8.8 68,6.9 68,4.6 C68,2.3 66.1,0.4 63.8,0.4 L4.2,0.4 C1.9,0.4 0,2.3 0,4.6 C0,6.9 1.9,8.8 4.2,8.8 Z" id="Path"></path>
                <path d="M4.2,28.2 L43.8,28.2 C46.1,28.2 48,26.3 48,24 C48,21.7 46.1,19.8 43.8,19.8 L4.2,19.8 C1.9,19.8 0,21.7 0,24 C0,26.3 1.9,28.2 4.2,28.2 Z" id="Path"></path>
                <path d="M63.8,39.2 L4.2,39.2 C1.9,39.2 0,41.1 0,43.4 C0,45.7 1.9,47.6 4.2,47.6 L63.8,47.6 C66.1,47.6 68,45.7 68,43.4 C68,41.1 66.1,39.2 63.8,39.2 Z" id="Path"></path>
            </g>
            <text id="MENU" font-family="DINPro-Medium, DINPro" font-size="26" font-weight="400" letter-spacing="-0.800000012">
                <tspan x="0" y="77">MEN</tspan>
                <tspan x="53.188" y="77">U</tspan>
            </text>
        </g>
    </g>
</svg>